<svg xmlns="http://www.w3.org/2000/svg" xmlns:svg="http://www.w3.org/2000/svg" id="svg8" width="210mm" height="297mm" version="1.1" viewBox="0 0 210 297"><metadata id="metadata5"/><g id="layer1"><path id="path833" d="M 177.51526,-19.076169 A 105.30754,105.30754 0 0 1 283.39284,85.655459 105.30754,105.30754 0 0 1 178.66399,191.53578 105.30754,105.30754 0 0 1 72.780924,86.809694 105.30754,105.30754 0 0 1 177.50424,-19.076109 l 0.58263,105.305929 z" style="opacity:1;fill:#274e7d;stroke-width:1.28891;stroke-linejoin:round;stroke-miterlimit:15.1"/><path style="opacity:1;fill:#fff;fill-opacity:1;stroke-width:1.00345;stroke-linejoin:round;stroke-miterlimit:15.1" id="path833-3" d="M 177.64186,4.2463402 A 81.984688,81.984688 0 0 1 260.07034,85.782665 81.984688,81.984688 0 0 1 178.53617,168.21328 81.984688,81.984688 0 0 1 96.103423,86.681267 81.984688,81.984688 0 0 1 177.63328,4.2463872 l 0.45359,81.9834328 z"/></g></svg>