<?xml version="1.0" encoding="UTF-8" standalone="no"?>
<svg
   xmlns:dc="http://purl.org/dc/elements/1.1/"
   xmlns:cc="http://creativecommons.org/ns#"
   xmlns:rdf="http://www.w3.org/1999/02/22-rdf-syntax-ns#"
   xmlns:svg="http://www.w3.org/2000/svg"
   xmlns="http://www.w3.org/2000/svg"
   xmlns:sodipodi="http://sodipodi.sourceforge.net/DTD/sodipodi-0.dtd"
   xmlns:inkscape="http://www.inkscape.org/namespaces/inkscape"
   inkscape:version="1.0 (6e3e5246a0, 2020-05-07)"
   sodipodi:docname="login.svg"
   version="1.1"
   viewBox="0 0 1100 806.74"
   height="806.74"
   width="1100"
   data-name="Layer 1"
   id="a91a722e-5259-4ef2-8c31-2e8a1147b313">
  <metadata
     id="metadata260">
    <rdf:RDF>
      <cc:Work
         rdf:about="">
        <dc:format>image/svg+xml</dc:format>
        <dc:type
           rdf:resource="http://purl.org/dc/dcmitype/StillImage" />
        <dc:title>operating system</dc:title>
      </cc:Work>
    </rdf:RDF>
  </metadata>
  <sodipodi:namedview
     inkscape:current-layer="a91a722e-5259-4ef2-8c31-2e8a1147b313"
     inkscape:window-maximized="1"
     inkscape:window-y="27"
     inkscape:window-x="0"
     inkscape:cy="493.05942"
     inkscape:cx="508.24783"
     inkscape:zoom="0.45577947"
     showgrid="false"
     id="namedview258"
     inkscape:window-height="704"
     inkscape:window-width="1366"
     inkscape:pageshadow="2"
     inkscape:pageopacity="0"
     guidetolerance="10"
     gridtolerance="10"
     objecttolerance="10"
     borderopacity="1"
     bordercolor="#666666"
     pagecolor="#ffffff" />
  <defs
     id="defs9">
    <linearGradient
       gradientUnits="userSpaceOnUse"
       gradientTransform="translate(250.84)"
       y2="385.75"
       x2="459.23"
       y1="847.99"
       x1="459.23"
       id="f0793c8d-2cc7-4dcf-96d3-b23677fc2573">
      <stop
         id="stop2"
         stop-opacity="0.25"
         stop-color="gray"
         offset="0" />
      <stop
         id="stop4"
         stop-opacity="0.12"
         stop-color="gray"
         offset="0.54" />
      <stop
         id="stop6"
         stop-opacity="0.1"
         stop-color="gray"
         offset="1" />
    </linearGradient>
  </defs>
  <title
     id="title11">operating system</title>
  <ellipse
     id="ellipse13"
     opacity="0.1"
     fill="#9ac5f5"
     ry="26.18"
     rx="122.56"
     cy="780.56"
     cx="629.72" />
  <path
     style="opacity:1;fill:#e1eefc;fill-opacity:1;stroke-width:0.984689"
     id="path15"
     opacity="0.1"
     fill="#9ac5f5"
     d="m 1067.7732,717.87325 c -23.9772,19.89073 -58.0967,28.12274 -91.09361,33.32189 l -5.55365,0.84684 c -57.67326,8.60618 -116.50845,10.35893 -175.06794,12.09199 -163.33043,4.83482 -327.0843,9.6598 -489.98147,-1.48688 -72.03988,-4.92345 -145.86205,-13.54933 -209.000346,-43.03094 l -1.644424,-0.7779 c -0.8173,-0.38403 -1.634589,-0.76806 -2.451878,-1.17178 a 220.67875,220.67875 0 0 1 -32.10088,-18.79772 c -18.029661,-12.86004 -32.918166,-28.556 -40.785835,-47.17648 -12.3283119,-29.20589 -5.809668,-62.03543 8.271391,-90.59142 14.081061,-28.556 35.251886,-54.27609 53.508024,-81.16796 5.356707,-7.87752 10.437707,-16.05044 15.164216,-24.43014 29.540692,-52.55288 44.192872,-113.3673 13.224382,-164.00988 A 225.08031,225.08031 0 0 0 97.036798,272.78378 c -7.552569,-9.84691 -15.23314,-19.6938 -20.42246,-30.59431 -12.101834,-25.3656 -9.502251,-53.89205 -5.090846,-80.99071 5.908146,-36.02978 16.788959,-74.836391 50.593358,-97.346393 35.12387,-23.376528 84.9787,-22.1949 128.5709,-13.785652 67.77617,12.988054 130.3335,40.17533 193.48163,64.694095 63.14814,24.51876 129.33896,46.85152 198.76941,49.25417 61.30677,2.13677 132.82476,-13.78566 173.53182,-55.22139 39.53529,-40.22456 113.83011,-43.26725 167.39722,-18.974962 51.11517,23.179582 84.17117,72.236812 81.72917,121.234962 -3.1116,61.14921 -54.0889,110.11782 -94.43167,162.17835 -6.70574,8.65542 -13.12591,17.40931 -18.98482,26.3109 -19.12266,29.07789 -32.64245,64.00482 -19.47715,95.39672 7.38517,17.57671 21.47608,30.98818 38.46197,42.69614 38.05817,26.22227 90.59147,43.86791 114.22397,80.57714 20.3534,31.66761 12.8108,74.40313 -17.6161,99.66041 z" />
  <g
     id="g71"
     opacity="0.2">
    <path
       style="fill:#9ac5f5;fill-opacity:1"
       id="path57"
       fill="#3f3d56"
       transform="translate(-50 -46.63)"
       d="M355.84,601.92c0,.94-.1,1.86-.2,2.76Q344,600,332.72,594.75a18.59,18.59,0,0,1-10.6-5.17c-2.19-1.1-4.37-2.24-6.54-3.39a26.82,26.82,0,0,1,1.66-3c4.2-6.66,10.6-10.83,17.65-10.6s13.15,4.78,16.93,11.66A34.37,34.37,0,0,1,355.84,601.92Z" />
    <path
       style="fill:#9ac5f5;fill-opacity:1"
       id="path59"
       fill="#3f3d56"
       transform="translate(-50 -46.63)"
       d="M357,567a34.56,34.56,0,0,1-5.13,17.32c-4.21,6.64-10.6,10.81-17.65,10.58-.49,0-1-.06-1.45-.1a18.59,18.59,0,0,1-10.6-5.17,25.27,25.27,0,0,1-4.88-6.37,35.82,35.82,0,0,1,1.1-35c4.21-6.66,10.6-10.83,17.65-10.6s13.15,4.78,16.93,11.66A34.47,34.47,0,0,1,357,567Z" />
    <ellipse
       style="fill:#9ac5f5;fill-opacity:1"
       id="ellipse61"
       fill="#3f3d56"
       transform="translate(-255.43 803.92) rotate(-88.19)"
       ry="21.87"
       rx="28.63"
       cy="531.28"
       cx="336.18" />
    <ellipse
       style="fill:#9ac5f5;fill-opacity:1"
       id="ellipse63"
       fill="#3f3d56"
       transform="translate(-219.41 771.16) rotate(-88.19)"
       ry="21.87"
       rx="28.63"
       cy="496.31"
       cx="337.29" />
    <ellipse
       style="fill:#9ac5f5;fill-opacity:1"
       id="ellipse65"
       fill="#3f3d56"
       transform="translate(-183.39 738.39) rotate(-88.19)"
       ry="21.87"
       rx="28.63"
       cy="461.34"
       cx="338.39" />
    <path
       id="path69"
       opacity="0.1"
       transform="translate(-50 -46.63)"
       d="M449.05,290.08a104.29,104.29,0,0,1-24.44,64A104.75,104.75,0,1,1,260,348.91C246.57,330.66,449.42,278.33,449.05,290.08Z" />
  </g>
  <g
     id="g87"
     opacity="0.2">
    <path
       style="fill:#9ac5f5;fill-opacity:1"
       id="path73"
       fill="#3f3d56"
       transform="translate(-50 -46.63)"
       d="M848.18,527.14c0,.67-.07,1.32-.14,2q-8.31-3.29-16.31-7.06a13.31,13.31,0,0,1-7.55-3.68c-1.55-.79-3.11-1.6-4.65-2.41a19.78,19.78,0,0,1,1.18-2.13c3-4.74,7.54-7.7,12.56-7.54s9.36,3.4,12.05,8.3A24.5,24.5,0,0,1,848.18,527.14Z" />
    <path
       style="fill:#9ac5f5;fill-opacity:1"
       id="path75"
       fill="#3f3d56"
       transform="translate(-50 -46.63)"
       d="M849,502.25a24.56,24.56,0,0,1-3.65,12.33c-3,4.72-7.54,7.69-12.56,7.53l-1-.07a13.31,13.31,0,0,1-7.55-3.68,18.32,18.32,0,0,1-3.47-4.54,25.51,25.51,0,0,1,.78-24.88c3-4.74,7.55-7.71,12.56-7.55s9.37,3.4,12.05,8.3A24.55,24.55,0,0,1,849,502.25Z" />
    <ellipse
       style="fill:#9ac5f5;fill-opacity:1"
       id="ellipse77"
       fill="#3f3d56"
       transform="translate(281.27 1248.98) rotate(-88.19)"
       ry="15.56"
       rx="20.37"
       cy="476.87"
       cx="834.19" />
    <ellipse
       style="fill:#9ac5f5;fill-opacity:1"
       id="ellipse79"
       fill="#3f3d56"
       transform="translate(306.9 1225.67) rotate(-88.19)"
       ry="15.56"
       rx="20.37"
       cy="451.98"
       cx="834.98" />
    <ellipse
       style="fill:#9ac5f5;fill-opacity:1"
       id="ellipse81"
       fill="#3f3d56"
       transform="translate(332.53 1202.35) rotate(-88.19)"
       ry="15.56"
       rx="20.37"
       cy="427.1"
       cx="835.76" />
    <path
       id="path85"
       opacity="0.1"
       transform="translate(-50 -46.63)"
       d="M914.52,305.22a74.2,74.2,0,0,1-17.4,45.56A74.54,74.54,0,1,1,780,347.09C770.42,334.09,914.78,296.86,914.52,305.22Z" />
  </g>
  <g
     id="g103"
     opacity="0.2">
    <path
       style="fill:#9ac5f5;fill-opacity:1"
       id="path89"
       fill="#3f3d56"
       transform="translate(-50 -46.63)"
       d="M635,449.09c0,.67-.08,1.32-.15,2q-8.31-3.29-16.31-7.06a13.28,13.28,0,0,1-7.54-3.68c-1.56-.79-3.11-1.6-4.65-2.41a19,19,0,0,1,1.17-2.13c3-4.73,7.55-7.7,12.56-7.54s9.36,3.4,12.05,8.3A24.5,24.5,0,0,1,635,449.09Z" />
    <path
       style="fill:#9ac5f5;fill-opacity:1"
       id="path91"
       fill="#3f3d56"
       transform="translate(-50 -46.63)"
       d="M635.74,424.2a24.56,24.56,0,0,1-3.65,12.33c-3,4.72-7.54,7.69-12.56,7.53-.35,0-.68,0-1-.07a13.28,13.28,0,0,1-7.54-3.68,18.11,18.11,0,0,1-3.48-4.54,25.48,25.48,0,0,1,.79-24.88c3-4.74,7.54-7.71,12.56-7.55s9.36,3.4,12,8.3A24.54,24.54,0,0,1,635.74,424.2Z" />
    <ellipse
       style="fill:#9ac5f5;fill-opacity:1"
       id="ellipse93"
       fill="#3f3d56"
       transform="matrix(0.03, -1, 1, 0.03, 152.77, 960.28)"
       ry="15.56"
       rx="20.37"
       cy="398.82"
       cx="620.97" />
    <ellipse
       style="fill:#9ac5f5;fill-opacity:1"
       id="ellipse95"
       fill="#3f3d56"
       transform="translate(178.4 936.96) rotate(-88.19)"
       ry="15.56"
       rx="20.37"
       cy="373.93"
       cx="621.75" />
    <ellipse
       style="fill:#9ac5f5;fill-opacity:1"
       id="ellipse97"
       fill="#3f3d56"
       transform="translate(204.04 913.64) rotate(-88.19)"
       ry="15.56"
       rx="20.37"
       cy="349.05"
       cx="622.54" />
    <path
       id="path101"
       opacity="0.1"
       transform="translate(-50 -46.63)"
       d="M701.29,227.17a74.2,74.2,0,0,1-17.4,45.56A74.54,74.54,0,1,1,566.78,269C557.19,256.05,701.55,218.81,701.29,227.17Z" />
  </g>
  <path
     style="fill:#ffffff;fill-opacity:1"
     id="path105"
     fill="#3f3d56"
     transform="translate(-50 -46.63)"
     d="M1022.4,547.44V765.17c-58.57,8.74-118.32,10.52-177.79,12.28-165.87,4.91-332.17,9.81-497.6-1.51-73.16-5-148.13-13.76-212.25-43.7V464c.24-185-.76,0,0-185.56V211.85a14.1,14.1,0,0,1,14.1-14.1H1008.3a14.1,14.1,0,0,1,14.1,14.1V380.48C1023,547,1022,381,1022.4,547.44Z" />
  <rect
     id="rect107"
     opacity="0.3"
     fill="#9ac5f5"
     rx="5.22"
     height="28.56"
     width="368.86"
     y="217.75"
     x="344.15" />
  <path
     id="path109"
     fill="#444053"
     transform="translate(-50 -46.63)"
     d="M737.94,279.85h-.61l-.23-.19a5.1,5.1,0,0,0,1.19-3.25,4.94,4.94,0,1,0-4.92,5,5.09,5.09,0,0,0,3.24-1.18l.22.19V281l3.81,3.82,1.14-1.14Zm-4.57,0a3.44,3.44,0,1,1,3.43-3.44A3.42,3.42,0,0,1,733.37,279.85Z" />
  <rect
     style="fill:#9ac5f5;fill-opacity:1"
     id="rect111"
     opacity="0.7"
     fill="#3f3d56"
     rx="5"
     height="11.9"
     width="34.42"
     y="493.2"
     x="222.84" />
  <rect
     id="rect113"
     opacity="0.3"
     fill="#9ac5f5"
     rx="5"
     height="11.9"
     width="53.54"
     y="522.95"
     x="222.84" />
  <rect
     id="rect115"
     opacity="0.3"
     fill="#9ac5f5"
     rx="5"
     height="11.9"
     width="107.09"
     y="508.08"
     x="222.84" />
  <path
     id="path117"
     fill="#9ac5f5"
     transform="translate(-50 -46.63)"
     d="M214.57,569.21a5.74,5.74,0,0,0-5.8,5.69,3.88,3.88,0,0,1-3.87,3.79,10,10,0,0,0,7.73,3.8,7.67,7.67,0,0,0,7.75-7.59A5.75,5.75,0,0,0,214.57,569.21Zm26.53-17.76-2.6-2.55a1.94,1.94,0,0,0-2.72,0l-17.34,17,5.32,5.22,17.32-17A1.86,1.86,0,0,0,241.1,551.45Z" />
  <rect
     style="fill:#9ac5f5;fill-opacity:1"
     id="rect119"
     opacity="0.7"
     fill="#3f3d56"
     rx="5"
     height="11.9"
     width="34.42"
     y="345.66"
     x="222.84" />
  <rect
     id="rect121"
     opacity="0.3"
     fill="#9ac5f5"
     rx="5"
     height="11.9"
     width="53.54"
     y="375.41"
     x="222.84" />
  <rect
     id="rect123"
     opacity="0.3"
     fill="#9ac5f5"
     rx="5"
     height="11.9"
     width="107.09"
     y="360.53"
     x="222.84" />
  <path
     id="path125"
     fill="#9ac5f5"
     transform="translate(-50 -46.63)"
     d="M241.18,424.78,226,409.5a10.82,10.82,0,0,0-2.51-11.58,11,11,0,0,0-12.35-2.18l7.18,7.22-5,5L206,400.78a10.86,10.86,0,0,0,2.17,12.41,10.66,10.66,0,0,0,11.51,2.52L234.83,431a1.61,1.61,0,0,0,2.34,0l3.84-3.86a1.51,1.51,0,0,0,.17-2.35Z" />
  <rect
     style="fill:#9ac5f5;fill-opacity:1"
     id="rect127"
     opacity="0.7"
     fill="#3f3d56"
     rx="5"
     height="11.9"
     width="34.42"
     y="493.2"
     x="509.6" />
  <rect
     id="rect129"
     opacity="0.3"
     fill="#9ac5f5"
     rx="5"
     height="11.9"
     width="53.54"
     y="522.95"
     x="509.6" />
  <rect
     id="rect131"
     opacity="0.3"
     fill="#9ac5f5"
     rx="5"
     height="11.9"
     width="107.09"
     y="508.08"
     x="509.6" />
  <path
     id="path133"
     fill="#9ac5f5"
     transform="translate(-50 -46.63)"
     d="M509.44,572.63a10,10,0,0,1-9.89,0c-3.87,1.19-6.24,5.09-7.12,8.54h24.12C515.68,577.72,513.32,573.82,509.44,572.63Zm-4.94-18.37a8.69,8.69,0,1,0,8.69,8.68A8.69,8.69,0,0,0,504.5,554.26Zm0,15.3a6.71,6.71,0,0,1-6.07-4.14h12.14A6.71,6.71,0,0,1,504.5,569.56Z" />
  <path
     id="path135"
     fill="#9ac5f5"
     transform="translate(-50 -46.63)"
     d="M522.09,568a10.07,10.07,0,0,1-8.4.69,12,12,0,0,1-2.3,2.86,11.24,11.24,0,0,1,4.9,4.33H529.2A10.72,10.72,0,0,0,522.09,568Zm-4.94-18.38a8.71,8.71,0,0,0-7.33,4,10.78,10.78,0,0,1,5.15,7.14h8.25a6.72,6.72,0,0,1-6.07,4.12,6,6,0,0,1-2.08-.38,11.65,11.65,0,0,1-.54,2.07,8.35,8.35,0,0,0,2.62.4,8.69,8.69,0,0,0,0-17.38Z" />
  <rect
     style="fill:#9ac5f5;fill-opacity:1"
     id="rect137"
     opacity="0.7"
     fill="#3f3d56"
     rx="5"
     height="11.9"
     width="34.42"
     y="603.86"
     x="222.84" />
  <rect
     id="rect139"
     opacity="0.3"
     fill="#9ac5f5"
     rx="5"
     height="11.9"
     width="53.54"
     y="633.61"
     x="222.84" />
  <rect
     id="rect141"
     opacity="0.3"
     fill="#9ac5f5"
     rx="5"
     height="11.9"
     width="107.09"
     y="618.74"
     x="222.84" />
  <path
     id="path143"
     fill="#9ac5f5"
     transform="translate(-50 -46.63)"
     d="M226.57,654.25h-9.82a3.28,3.28,0,0,0-3.32,3.24v.7h-.62a3.28,3.28,0,0,0-3.32,3.24v23.63a3.34,3.34,0,0,0,3.32,3.32h17.08a3.27,3.27,0,0,0,3.23-3.32v-.62h.71a3.27,3.27,0,0,0,3.23-3.32V664.75Zm0,3.66,6.84,6.84h-6.84Zm3.94,27.15a.67.67,0,0,1-.62.7H212.81a.73.73,0,0,1-.69-.7V661.43a.67.67,0,0,1,.69-.62h.62v21c0,1.82.86,2.66,2.67,2.66h14.41Zm3.93-3.94a.66.66,0,0,1-.61.7H216.75a.73.73,0,0,1-.69-.7V657.49a.67.67,0,0,1,.69-.62h7.19v10.51h10.5Z" />
  <rect
     style="fill:#9ac5f5;fill-opacity:1"
     id="rect145"
     opacity="0.7"
     fill="#3f3d56"
     rx="5"
     height="11.9"
     width="34.42"
     y="345.66"
     x="509.6" />
  <rect
     id="rect147"
     opacity="0.3"
     fill="#9ac5f5"
     rx="5"
     height="11.9"
     width="53.54"
     y="375.41"
     x="509.6" />
  <rect
     id="rect149"
     opacity="0.3"
     fill="#9ac5f5"
     rx="5"
     height="11.9"
     width="107.09"
     y="360.53"
     x="509.6" />
  <path
     id="path151"
     fill="#9ac5f5"
     transform="translate(-50 -46.63)"
     d="M507.32,400H495.94a3.51,3.51,0,0,0-3.5,3.51v19.25a3.5,3.5,0,0,0,3.5,3.5H525.7a3.5,3.5,0,0,0,3.5-3.5V407.42a3.51,3.51,0,0,0-3.5-3.5H510.82l-3.5-3.94Z" />
  <rect
     style="fill:#9ac5f5;fill-opacity:1"
     id="rect153"
     opacity="0.7"
     fill="#3f3d56"
     rx="5"
     height="11.9"
     width="34.42"
     y="493.2"
     x="792.79" />
  <rect
     id="rect155"
     opacity="0.3"
     fill="#9ac5f5"
     rx="5"
     height="11.9"
     width="53.54"
     y="522.95"
     x="792.79" />
  <rect
     id="rect157"
     opacity="0.3"
     fill="#9ac5f5"
     rx="5"
     height="11.9"
     width="107.09"
     y="508.08"
     x="792.79" />
  <path
     id="path159"
     fill="#9ac5f5"
     transform="translate(-50 -46.63)"
     d="M812.93,555.91l-6.77-.32-.4-4.41a1.7,1.7,0,0,0-1.88-1.52l-24.27,2a1.67,1.67,0,0,0-1.59,1.79l1.73,19.35a1.7,1.7,0,0,0,1.88,1.49l1.23-.09-.19,3.76a1.87,1.87,0,0,0,1.83,1.93l27.09,1.28a1.88,1.88,0,0,0,2-1.74l1.14-21.6A1.86,1.86,0,0,0,812.93,555.91Zm-29.12.44-.58,11.06-1.44,2-1.32-14.61v-.09a.89.89,0,0,1,.78-.77l21.42-1.75a.81.81,0,0,1,.87.64s0,0,0,0,0,0,0,0l.21,2.52-18-.86A1.9,1.9,0,0,0,783.81,556.35Zm27.4,19.44-7-8.17-3.07,2.82-5.67-6.63-10.07,10.72.86-16.33v0a.94.94,0,0,1,1-.74l23.9,1.16a.87.87,0,0,1,.85.83s0,0,0,0Z" />
  <path
     id="path161"
     fill="#9ac5f5"
     transform="translate(-50 -46.63)"
     d="M806.89,565.42a2.63,2.63,0,1,0-2.62-2.63A2.64,2.64,0,0,0,806.89,565.42Z" />
  <rect
     style="fill:#9ac5f5;fill-opacity:1"
     id="rect163"
     opacity="0.7"
     fill="#3f3d56"
     rx="5"
     height="11.9"
     width="34.42"
     y="345.66"
     x="795.17" />
  <rect
     id="rect165"
     opacity="0.3"
     fill="#9ac5f5"
     rx="5"
     height="11.9"
     width="53.54"
     y="375.41"
     x="795.17" />
  <rect
     id="rect167"
     opacity="0.3"
     fill="#9ac5f5"
     rx="5"
     height="11.9"
     width="107.09"
     y="360.53"
     x="795.17" />
  <circle
     id="circle169"
     fill="#9ac5f5"
     r="5.25"
     cy="356.63"
     cx="762.56" />
  <path
     id="path171"
     fill="#9ac5f5"
     transform="translate(-50 -46.63)"
     d="M808.53,409.45l-10.42,6.94-14.44-9.62v-3.51l14.44,9.63,8.3-5.53a7.39,7.39,0,0,1-.1-8H783.24a3.52,3.52,0,0,0-3.51,3.51v21.88a3.52,3.52,0,0,0,3.51,3.51H813a3.51,3.51,0,0,0,3.5-3.51v-15.2a7.37,7.37,0,0,1-8-.06Z" />
  <path
     id="path245"
     opacity="0.1"
     transform="translate(-50 -46.63)"
     d="M779,480.3c-1.09-2.75-5.67-10.36-4.35-13a33.77,33.77,0,0,1,3.49,6.24C779,475.69,778.32,478.55,779,480.3Z" />
  <path
     id="path253"
     opacity="0.1"
     transform="translate(-50 -46.63)"
     d="M667.94,390.28a1.8,1.8,0,0,1-.42,2.32,3.2,3.2,0,0,1-1.66.59,11.2,11.2,0,0,1-1.3.1,3.58,3.58,0,0,1-1.71-.29,2.2,2.2,0,0,1-.3-.19,4.4,4.4,0,0,0,.51-.69c.1.08.2.06.59,0a9.13,9.13,0,0,0,2.14-.36,2.38,2.38,0,0,0,.8-.39,2.48,2.48,0,0,0,.76-1.15Z" />
  <path
     id="path255"
     opacity="0.1"
     transform="translate(-50 -46.63)"
     d="M652.86,425.64a4.87,4.87,0,0,0,1.83.68,8.29,8.29,0,0,0,1.41.23,7.84,7.84,0,0,0,3.45-1" />
</svg>
