<svg xmlns="http://www.w3.org/2000/svg" xmlns:svg="http://www.w3.org/2000/svg" id="svg8" width="210mm" height="297mm" version="1.1" viewBox="0 0 210 297"><metadata id="metadata5"/><g style="display:inline" id="layer2"><path style="fill:#9ac5f5;fill-opacity:1;stroke-width:.264405" id="path1201" fill="#f2f2f2" d="M 151.63445,207.60673 C 184.23243,173.375 191.08815,122.98201 167.4662,84.156311 154.97798,63.630326 134.21513,46.922804 99.703433,47.205794 38.010072,47.711665 26.772941,96.413582 25.654574,126.05713 a 152.30035,159.03302 60.677302 0 1 -7.714699,42.36232 c -8.1875194,24.79305 -12.2623264,64.99569 41.630333,75.17315 39.061485,7.37667 70.350782,-13.18415 92.064242,-35.98587 z"/><ellipse style="fill:#274e7d;fill-opacity:1;stroke-width:.215819" id="ellipse1203" cx="108.098" cy="240.223" fill="#3f3d56" rx="98.198" ry="4.964"/><ellipse style="fill:#274e7d;fill-opacity:1;stroke-width:.215819" id="ellipse1205" cx="167.919" cy="248.425" fill="#3f3d56" rx="38.425" ry="1.942"/><ellipse style="fill:#274e7d;fill-opacity:1;stroke-width:.215819" id="ellipse1207" cx="95.377" cy="253.604" fill="#3f3d56" rx="38.425" ry="1.942"/></g><g id="layer1"><g id="g1066" transform="matrix(0.21581913,0,0,0.21581913,11.791186,77.74118)"><path style="fill:#fff;fill-opacity:1" id="path980" fill="#3f3d56" d="M 720.49687,142.406 V 754.56957 A 48.30136,48.30136 0 0 1 672.2053,802.86126 H 434.31173 A 48.30567,48.30567 0 0 1 386,754.56957 V 142.406 a 48.30564,48.30564 0 0 1 48.31173,-48.29157 h 28.85807 a 22.96636,22.96636 0 0 0 21.246,31.61713 H 620.0471 A 22.96611,22.96611 0 0 0 641.293,94.11445 h 30.9123 a 48.30134,48.30134 0 0 1 48.29157,48.29155 z" transform="translate(-202,-94.11445)"/><rect style="fill:#274e7d;fill-opacity:1" id="rect988" width="213.564" height="2" x="244.574" y="409.904" fill="#fff"/><circle style="fill:#274e7d;fill-opacity:1" id="circle990" cx="251.319" cy="390.671" r="6.744" fill="#6c63ff"/><rect style="fill:#274e7d;fill-opacity:1" id="rect992" width="213.564" height="2" x="244.574" y="477.345" fill="#fff"/><circle style="fill:#274e7d;fill-opacity:1" id="circle994" cx="251.319" cy="458.113" r="6.744" fill="#6c63ff"/><rect style="fill:#274e7d;fill-opacity:1" id="rect998" width="75.31" height="31.473" x="382.83" y="522.182" fill="#6c63ff" rx="4"/></g><g id="g1292" transform="matrix(0.21581913,0,0,0.21581913,31.424238,36.792458)"><ellipse id="ellipse1241" cx="614" cy="341.223" fill="#2f2e41" rx="1" ry="5.5"/><path id="path1247" fill="#2f2e41" d="M 736.68257,277.72205" transform="translate(-144.8873,-49.1386)"/></g></g><g style="display:inline" id="layer3"><path style="fill:#274e7d;fill-opacity:1;stroke-width:.100421" id="path1249" fill="#6c63ff" d="m 69.078639,122.05291 a 1.4071391,1.4071391 0 0 1 -1.225149,-2.10886 c 1.787514,-3.01266 7.220352,-10.05225 19.09025,-10.05225 5.141613,0 9.650563,1.36573 13.39631,4.05705 3.08296,2.20929 4.81022,4.7098 5.63367,5.91486 a 1.3955493,1.3955493 0 0 1 -0.37156,1.94819 1.4284145,1.4284145 0 0 1 -1.96827,-0.37157 c -1.49629,-2.1691 -6.035357,-8.7568 -16.69015,-8.7568 -10.403735,0 -15.103491,6.0655 -16.63995,8.66642 a 1.3862031,1.3862031 0 0 1 -1.225151,0.70296 z"/><path style="fill:#274e7d;fill-opacity:1;stroke-width:.100421" id="path1251" fill="#6c63ff" d="m 92.918853,149.60875 a 1.3993092,1.3993092 0 0 1 -0.35148,-0.0402 C 83.961199,147.40947 80.747693,138.71292 80.617147,138.3514 l -0.02008,-0.0803 c -0.07027,-0.25105 -1.797557,-6.21612 0.853589,-9.71081 1.21511,-1.59672 3.062873,-2.41013 5.503131,-2.41013 2.269538,0 3.906426,0.71299 5.031146,2.1892 0.92389,1.20507 1.29545,2.69131 1.65697,4.12735 0.75317,2.98254 1.29545,4.54913 4.42862,4.70979 1.37578,0.0703 2.279577,-0.74312 2.791727,-1.43603 1.38583,-1.88793 1.62685,-4.97089 0.58246,-7.68228 -1.34566,-3.51479 -6.105667,-10.1326 -14.500962,-10.1326 -3.585067,0 -6.878914,1.1649 -9.520018,3.35409 -2.189203,1.81765 -3.926505,4.37841 -4.76001,7.00946 -1.546501,4.90062 0.482026,12.60299 0.502111,12.67329 a 1.3929253,1.3929253 0 0 1 -1.004221,1.70717 1.4262394,1.4262394 0 0 1 -1.737303,-0.99418 c -0.09038,-0.35148 -2.259499,-8.56601 -0.471984,-14.22982 1.948189,-6.13579 7.953433,-12.32179 16.991425,-12.32179 4.177565,0 8.124145,1.43604 11.417995,4.14744 2.550717,2.10886 4.639507,4.94076 5.724067,7.77266 1.38582,3.61521 1.01426,7.67225 -0.94397,10.3234 -1.30548,1.76743 -3.163297,2.69131 -5.221957,2.59089 -5.36253,-0.27114 -6.32659,-4.05705 -7.02956,-6.81866 -0.72303,-2.8319 -1.18497,-4.19765 -3.946575,-4.19765 -1.516377,0 -2.580853,0.42178 -3.243633,1.29544 -0.903803,1.19503 -0.974096,3.06289 -0.873676,4.41858 q 0.0018,0.0212 0.0028,0.0425 a 11.440838,11.440838 0 0 0 1.527448,4.89074 c 1.394075,2.40372 4.221837,6.09013 8.913386,7.26816 a 1.395005,1.395005 0 0 1 1.02431,1.69713 1.4256418,1.4256418 0 0 1 -1.3758,1.05444 z"/><path style="fill:#274e7d;fill-opacity:1;stroke-width:.100421" id="path1253" fill="#6c63ff" d="m 81.872423,148.96605 a 1.4298023,1.4298023 0 0 1 -1.03435,-0.44185 c -3.44448,-3.65538 -5.39267,-7.74255 -6.125751,-12.85405 v -0.0301 c -0.41173,-3.38421 0.190802,-8.17436 3.143213,-11.46821 2.179164,-2.43021 5.242037,-3.6654 9.088205,-3.6654 4.549113,0 8.124143,2.13899 10.353523,6.17595 a 17.359662,17.359662 0 0 1 1.94819,5.97513 1.418563,1.418563 0 0 1 -2.82187,0.29122 14.536519,14.536519 0 0 0 -1.65696,-4.99097 c -1.72726,-3.08297 -4.35832,-4.64955 -7.832922,-4.64955 -3.002628,0 -5.352507,0.91384 -6.969304,2.72143 -2.329791,2.60094 -2.781691,6.60778 -2.460339,9.25893 0.642703,4.51899 2.35992,8.1141 5.392665,11.32762 a 1.3889637,1.3889637 0 0 1 -0.07027,1.97831 1.42448,1.42448 0 0 1 -0.954008,0.37156 z"/></g></svg>