<?xml version="1.0" encoding="UTF-8" standalone="no"?>
<svg
   xmlns:dc="http://purl.org/dc/elements/1.1/"
   xmlns:cc="http://creativecommons.org/ns#"
   xmlns:rdf="http://www.w3.org/1999/02/22-rdf-syntax-ns#"
   xmlns:svg="http://www.w3.org/2000/svg"
   xmlns="http://www.w3.org/2000/svg"
   xmlns:sodipodi="http://sodipodi.sourceforge.net/DTD/sodipodi-0.dtd"
   xmlns:inkscape="http://www.inkscape.org/namespaces/inkscape"
   width="210mm"
   height="297mm"
   viewBox="0 0 210 297"
   version="1.1"
   id="svg8"
   inkscape:version="1.0 (6e3e5246a0, 2020-05-07)"
   sodipodi:docname="signup.svg">
  <defs
     id="defs2" />
  <sodipodi:namedview
     id="base"
     pagecolor="#ffffff"
     bordercolor="#666666"
     borderopacity="1.0"
     inkscape:pageopacity="0.0"
     inkscape:pageshadow="2"
     inkscape:zoom="0.35"
     inkscape:cx="378.08265"
     inkscape:cy="415.23956"
     inkscape:document-units="mm"
     inkscape:current-layer="layer4"
     inkscape:document-rotation="0"
     showgrid="false"
     inkscape:window-width="1366"
     inkscape:window-height="704"
     inkscape:window-x="0"
     inkscape:window-y="27"
     inkscape:window-maximized="1" />
  <metadata
     id="metadata5">
    <rdf:RDF>
      <cc:Work
         rdf:about="">
        <dc:format>image/svg+xml</dc:format>
        <dc:type
           rdf:resource="http://purl.org/dc/dcmitype/StillImage" />
        <dc:title></dc:title>
      </cc:Work>
    </rdf:RDF>
  </metadata>
  <g
     inkscape:groupmode="layer"
     id="layer2"
     inkscape:label="bg"
     style="display:inline">
    <path
       id="path1201"
       fill="#f2f2f2"
       d="M 20.750432,176.03047 C -0.37730298,133.74503 7.8445216,83.556827 41.812619,53.36412 59.770539,37.402139 84.519731,27.517063 117.4315,37.907113 c 58.83332,18.573329 55.29617,68.429507 47.67332,97.098007 a 159.03302,152.30035 46.373493 0 0 -5.04585,42.76239 c 0.55784,26.10401 -7.33466,65.73437 -61.84271,59.6621 -39.507535,-4.40115 -63.392685,-33.23285 -77.465828,-61.39914 z"
       style="fill:#9ac5f5;fill-opacity:1;stroke-width:0.264405" />
    <ellipse
       id="ellipse1203"
       fill="#3f3d56"
       ry="4.96384"
       rx="98.197701"
       cy="233.483"
       cx="131.25124"
       style="fill:#274e7d;fill-opacity:1;stroke-width:0.215819" />
  </g>
  <g
     inkscape:label="newV"
     id="layer4"
     inkscape:groupmode="layer">
    <g
       transform="matrix(0.26458333,0,0,0.26458333,29.741784,57.317498)"
       id="g12004"
       style="display:inline">
      <ellipse
         cx="416"
         cy="666.68939"
         rx="416"
         ry="24"
         fill="#e6e6e6"
         id="ellipse11907" />
      <path
         style="fill:#274e7d;fill-opacity:1"
         d="m 614,263.08561 h -3.66313 V 162.73537 A 58.08,58.08 0 0 0 552.2567,104.6553 H 339.65126 a 58.08,58.08 0 0 0 -58.08017,58.08007 v 550.52926 a 58.08,58.08 0 0 0 58.08017,58.08007 H 552.2567 a 58.08,58.08 0 0 0 58.08017,-58.08007 v -378.748 H 614 Z"
         transform="translate(-184,-104.6553)"
         fill="#3f3d56"
         id="path11941" />
      <path
         d="m 597.97482,163.1406 v 549.71933 a 43.37625,43.37625 0 0 1 -43.37549,43.37549 H 340.97379 A 43.37629,43.37629 0 0 1 297.5983,712.85993 V 163.1406 a 43.37632,43.37632 0 0 1 43.37549,-43.37549 h 25.91541 a 20.61744,20.61744 0 0 0 19.08152,28.38874 h 121.79955 a 20.61754,20.61754 0 0 0 19.08158,-28.38874 h 27.74748 a 43.37629,43.37629 0 0 1 43.37549,43.37549 z"
         transform="translate(-184,-104.6553)"
         fill="#ffffff"
         id="path11943" />
      <path
         style="fill:#274e7d;fill-opacity:1"
         d="M 604.20638,592.65271 V 715.661 a 45.176,45.176 0 0 1 -45.17521,45.17521 H 336.542 A 45.176,45.176 0 0 1 291.36674,715.661 V 604.64538 a 212.73036,212.73036 0 0 1 312.83964,-11.99267 z"
         transform="translate(-184,-104.6553)"
         fill="#3f3d56"
         id="path11959" />
      <circle
         style="fill:#aea9ff;fill-opacity:1;opacity:0.32544824"
         cx="264.01978"
         cy="546.13013"
         r="63.208241"
         fill="#6c63ff"
         opacity="0.2"
         id="circle11961" />
      <circle
         style="fill:#9ac5f5;fill-opacity:1"
         cx="264.01978"
         cy="546.13013"
         r="50.894951"
         fill="#6c63ff"
         id="circle11963" />
      <polygon
         style="fill:#274e7d;fill-opacity:1"
         points="287.759,517.351 297.353,526.439 258.084,567.89 240.147,544.829 250.578,536.716 259.07,547.635 "
         fill="#ffffff"
         id="polygon11965" />
    </g>
  </g>
  <g
     style="display:none"
     inkscape:label="Layer 1"
     inkscape:groupmode="layer"
     id="layer1">
    <g
       id="g1066"
       transform="matrix(0.21581913,0,0,0.21581913,11.791186,77.74118)">
      <path
         id="path980"
         fill="#3f3d56"
         transform="translate(-202,-94.11445)"
         d="M 720.49687,142.406 V 754.56957 A 48.30136,48.30136 0 0 1 672.2053,802.86126 H 434.31173 A 48.30567,48.30567 0 0 1 386,754.56957 V 142.406 a 48.30564,48.30564 0 0 1 48.31173,-48.29157 h 28.85807 a 22.96636,22.96636 0 0 0 21.246,31.61713 H 620.0471 A 22.96611,22.96611 0 0 0 641.293,94.11445 h 30.9123 a 48.30134,48.30134 0 0 1 48.29157,48.29155 z"
         style="fill:#ffffff;fill-opacity:1" />
      <rect
         id="rect988"
         fill="#ffffff"
         height="2"
         width="213.56445"
         y="409.90405"
         x="244.57422"
         style="fill:#274e7d;fill-opacity:1" />
      <circle
         id="circle990"
         fill="#6c63ff"
         r="6.7441401"
         cy="390.67148"
         cx="251.31877"
         style="fill:#274e7d;fill-opacity:1" />
      <rect
         id="rect992"
         fill="#ffffff"
         height="2"
         width="213.56445"
         y="477.34546"
         x="244.57422"
         style="fill:#274e7d;fill-opacity:1" />
      <circle
         id="circle994"
         fill="#6c63ff"
         r="6.7441401"
         cy="458.11292"
         cx="251.31877"
         style="fill:#274e7d;fill-opacity:1" />
      <rect
         id="rect998"
         fill="#6c63ff"
         rx="4"
         height="31.47267"
         width="75.309593"
         y="522.18225"
         x="382.82956"
         style="fill:#274e7d;fill-opacity:1" />
    </g>
    <g
       id="g1292"
       transform="matrix(0.21581913,0,0,0.21581913,31.424238,36.792458)">
      <path
         id="path1247"
         fill="#2f2e41"
         transform="translate(-144.8873,-49.1386)"
         d="M 736.68257,277.72205" />
    </g>
  </g>
  <g
     inkscape:groupmode="layer"
     id="layer3"
     inkscape:label="print"
     style="display:inline">
    <path
       id="path1249"
       fill="#6c63ff"
       d="m 82.476608,113.2307 a 1.4071391,1.4071391 0 0 1 -1.225149,-2.10886 c 1.787514,-3.01266 7.220352,-10.05225 19.090251,-10.05225 5.14161,0 9.65056,1.36573 13.39631,4.05705 3.08296,2.20929 4.81022,4.7098 5.63367,5.91486 a 1.3955493,1.3955493 0 0 1 -0.37156,1.94819 1.4284145,1.4284145 0 0 1 -1.96827,-0.37157 c -1.49629,-2.1691 -6.03536,-8.7568 -16.69015,-8.7568 -10.403736,0 -15.103492,6.0655 -16.639951,8.66642 a 1.3862031,1.3862031 0 0 1 -1.225151,0.70296 z"
       style="fill:#274e7d;fill-opacity:1;stroke-width:0.100421" />
    <path
       id="path1251"
       fill="#6c63ff"
       d="m 106.31682,140.78654 a 1.3993092,1.3993092 0 0 1 -0.35148,-0.0402 C 97.359168,138.58726 94.145662,129.89071 94.015116,129.52919 l -0.02008,-0.0803 c -0.07027,-0.25105 -1.797557,-6.21612 0.853589,-9.71081 1.21511,-1.59672 3.062873,-2.41013 5.503135,-2.41013 2.26953,0 3.90642,0.71299 5.03114,2.1892 0.92389,1.20507 1.29545,2.69131 1.65697,4.12735 0.75317,2.98254 1.29545,4.54913 4.42862,4.70979 1.37578,0.0703 2.27958,-0.74312 2.79173,-1.43603 1.38583,-1.88793 1.62685,-4.97089 0.58246,-7.68228 -1.34566,-3.51479 -6.10567,-10.1326 -14.50096,-10.1326 -3.58507,0 -6.878917,1.1649 -9.520021,3.35409 -2.189203,1.81765 -3.926505,4.37841 -4.76001,7.00946 -1.546501,4.90062 0.482026,12.60299 0.502111,12.67329 a 1.3929253,1.3929253 0 0 1 -1.004221,1.70717 1.4262394,1.4262394 0 0 1 -1.737303,-0.99418 c -0.09038,-0.35148 -2.259499,-8.56601 -0.471984,-14.22982 1.948189,-6.13579 7.953433,-12.32179 16.991428,-12.32179 4.17756,0 8.12414,1.43604 11.41799,4.14744 2.55072,2.10886 4.63951,4.94076 5.72407,7.77266 1.38582,3.61521 1.01426,7.67225 -0.94397,10.3234 -1.30548,1.76743 -3.1633,2.69131 -5.22196,2.59089 -5.36253,-0.27114 -6.32659,-4.05705 -7.02956,-6.81866 -0.72303,-2.8319 -1.18497,-4.19765 -3.94657,-4.19765 -1.51638,0 -2.580856,0.42178 -3.243636,1.29544 -0.903803,1.19503 -0.974096,3.06289 -0.873676,4.41858 q 0.0018,0.0212 0.0028,0.0425 a 11.440838,11.440838 0 0 0 1.527448,4.89074 c 1.394075,2.40372 4.221834,6.09013 8.913384,7.26816 a 1.395005,1.395005 0 0 1 1.02431,1.69713 1.4256418,1.4256418 0 0 1 -1.3758,1.05444 z"
       style="fill:#274e7d;fill-opacity:1;stroke-width:0.100421" />
    <path
       id="path1253"
       fill="#6c63ff"
       d="m 95.270392,140.14384 a 1.4298023,1.4298023 0 0 1 -1.03435,-0.44185 c -3.44448,-3.65538 -5.39267,-7.74255 -6.125751,-12.85405 v -0.0301 c -0.41173,-3.38421 0.190802,-8.17436 3.143213,-11.46821 2.179164,-2.43021 5.242037,-3.6654 9.088206,-3.6654 4.54911,0 8.12414,2.13899 10.35352,6.17595 a 17.359662,17.359662 0 0 1 1.94819,5.97513 1.418563,1.418563 0 0 1 -2.82187,0.29122 14.536519,14.536519 0 0 0 -1.65696,-4.99097 c -1.72726,-3.08297 -4.35832,-4.64955 -7.83292,-4.64955 -3.002628,0 -5.352507,0.91384 -6.969304,2.72143 -2.329791,2.60094 -2.781691,6.60778 -2.460339,9.25893 0.642703,4.51899 2.35992,8.1141 5.392665,11.32762 a 1.3889637,1.3889637 0 0 1 -0.07027,1.97831 1.42448,1.42448 0 0 1 -0.954008,0.37156 z"
       style="fill:#274e7d;fill-opacity:1;stroke-width:0.100421" />
  </g>
</svg>
